# xmcd
#
# Track frame offsets: 
#        183
#        16070
#        35505
#        51870
#        64560
#        76838
#        97318
#        114808
#        130798
#        143630
#
# Disc length: 2144 seconds
#
# Revision: 4
# Processed by: cddbd v1.5.2PL0 Copyright (c) Steve Scherf et al.
# Submitted via: ExactAudioCopy v1.1
#
DISCID=77085e0a
DTITLE=Queen - The Game
DYEAR=1980
DGENRE=Rock
TTITLE0=Play The Game
TTITLE1=Dragon Attack
TTITLE2=Another Ones Bites The Dust
TTITLE3=Need Your Loving Tonight
TTITLE4=Crazy Little Thing Called Love
TTITLE5=Rock It (Prime Jive)
TTITLE6=Don't Try Suicide
TTITLE7=Sail Away Sweet Sister
TTITLE8=Coming Soon
TTITLE9=Save Me
EXTD=YEAR: 1980
EXTT0=
EXTT1=
EXTT2=
EXTT3=
EXTT4=
EXTT5=
EXTT6=
EXTT7=
EXTT8=
EXTT9=
PLAYORDER=
